<?xml version="1.0" encoding="UTF-8"?>
<svg id="Layer_1" data-name="Layer 1" xmlns="http://www.w3.org/2000/svg" viewBox="0 0 1080 1080">
  <defs>
    <style>
      .cls-1, .cls-2, .cls-3 {
        fill: #fff;
      }

      .cls-2 {
        font-family: VT323-Regular, VT323;
        font-size: 119.7px;
      }

      .cls-4 {
        fill: none;
        stroke-width: 7.5px;
      }

      .cls-4, .cls-3 {
        stroke: #fff;
        stroke-miterlimit: 10;
      }

      .cls-3 {
        stroke-width: 1.25px;
      }
    </style>
  </defs>
  <g>
    <path class="cls-1" d="M413.99,560.51c5.27-13.85,14.17-26.25,26.16-35.19,15.23-11.23,33.37-10.51,43.73,6.74,5.18,8.78,7.45,18.48,7.81,28.45-2.47-4.21-4.72-8.39-7.16-12.34-5.3-8.26-11.6-18.29-22.05-19.18-16.15-.71-36.3,21.07-48.49,31.52h0Z"/>
    <path class="cls-1" d="M671.91,564.18c-12.15-10.42-32.35-32.24-48.49-31.52-10.46,.89-16.75,10.92-22.05,19.18-2.44,3.95-4.69,8.13-7.16,12.34,.35-9.97,2.63-19.66,7.81-28.45,10.37-17.25,28.51-17.96,43.73-6.74,11.99,8.93,20.89,21.34,26.16,35.19h0Z"/>
    <path class="cls-1" d="M390.95,466.74c12.23,2.79,30.22,5.25,40.6-2.96,3.28-2.7,5.16-6.42,6.03-10.53,0,0,2.98-12.78,2.98-12.78,0,0,3.96,12.78,3.96,12.78,3.51,11.51,13.83,20.16,25.49,22.35,11.81,2.37,23.8-1.79,33.1-9.25,0,0,7.62-5.97,7.62-5.97l1.78,9.78c.57,3.13,2.02,6,4.21,8.55,12.39,13.26,37.27,14.19,52.75,5.93,6.64-3.49,11.96-8.89,15.28-15.55l4.44-8.92,5.53,7.97c2.97,4.27,7.59,7.25,13.11,8.62,14.23,3.95,41.17-3.72,44.47-19.71,0,0,1.77-10.85,1.77-10.85l4.57,9.57c1.58,3.31,4.27,6.2,7.79,8.27,11.25,6.39,25.22,7.02,37.99,6.7-16.3,3.42-41.78,4.61-51.74-11.82,0,0,6.34-1.28,6.34-1.28-.24,4.1-1.79,7.97-3.95,11.17-12.23,17.41-41.9,25.36-60.69,14.33-3.49-2.07-6.62-4.89-9.07-8.18l9.97-.95c-10.27,23.27-38.49,32.35-62.09,26.92-13.92-2.93-28.88-12.03-31.94-27.05,0,0-.39-2.02-.39-2.02l9.4,3.81c-8.85,6.66-19.96,11.14-31.27,11.12-18.92,.39-37.6-12.96-41.43-31.77,0,0,6.94,0,6.94,0-2.28,8.14-8.76,14.7-17,16.66-12.34,3.05-25.18-.22-36.57-4.96h0Z"/>
    <path class="cls-4" d="M401.22,469.5s-24.38,39.03-31.52,139.06c-7.14,100.03,77.88,124.32,175.05,132.18,97.17,7.86,191.48-47.87,182.9-122.89-8.57-75.02-29.96-146.44-29.96-146.44"/>
    <path class="cls-1" d="M476.86,603.56c7.28,5.9,11.08,15.58,9.52,25.02-1.48,9.54-10.15,17.27-19.52,18.2,4.48-4.81,8.31-8.73,10.66-14.38,3.74-9.3,1.35-19.03-.66-28.84h0Z"/>
    <path class="cls-1" d="M623.06,603.56c-2.01,9.81-4.4,19.55-.66,28.84,2.36,5.65,6.18,9.58,10.66,14.38-9.37-.93-18.04-8.67-19.52-18.2-1.56-9.45,2.24-19.12,9.52-25.02h0Z"/>
    <path class="cls-4" d="M482.27,629.84s65.29,39,136.04,2.07"/>
    <circle class="cls-3" cx="408.99" cy="625.17" r="29.29"/>
    <circle class="cls-3" cx="686.2" cy="625.17" r="29.29"/>
    <path class="cls-1" d="M521.79,573.17c4.24,5.86,10.07,10.63,16.83,13.26,13.55,5.27,26.45-1.68,35.47-11.84,5.99-6.75-3.92-16.73-9.95-9.95-5.66,6.38-13.12,12.26-21.81,8.14-2.72-1.28-4.44-2.7-6.45-4.69-.72-.71-1.37-1.48-2.06-2.22-1.12-1.19-.16-.2,.12,.19-5.26-7.26-17.47-.25-12.15,7.1h0Z"/>
    <path class="cls-1" d="M542.73,581.29v12.44c0,6.03,9.38,6.04,9.38,0v-12.44c0-6.03-9.38-6.04-9.38,0h0Z"/>
    <path class="cls-4" d="M293.96,605.49s11.43,17.36,27.86,19.68c-13.93,9.47-19.28,50.38,18.58,45.55-19.65,21.79,22.51,88.64,72.16,70.76-8.22,24.27,48.94,53.92,78.95,20.34,12.15,27.51,93.95,35.72,114.67-1.43,24.29,25.03,86.45,10.41,78.95-18.91,49.66,4.62,87.88-17.89,71.8-68.97,40.37,1.07,34.29-37.51,21.08-47.33,21-2.32,20.72-21.61,20.72-21.61"/>
    <g>
      <path class="cls-1" d="M731.43,478.81c15.72,11.07,26.1,33.31,12.39,50.09-1.24,1.56-2.78,3.11-4.22,4.46,0,0-1.95-6.91-1.95-6.91,20.27,5.19,6.5,32.75-1.2,43.67-1.23,1.78-2.51,3.52-3.92,5.17,1.37-4.1,2.73-8.13,3.99-12.16,2.19-7.6,4.91-15.54,4.19-23.4-.38-3.13-1.74-4.88-4.56-5.39,0,0-6.97-2.09-6.97-2.09,4.46-4.3,10.32-9.26,12.31-15.12,4.84-13.29-2.91-27.12-10.06-38.31h0Z"/>
      <path class="cls-4" d="M746.1,504.62s36.2,22.84,61.93,27.13c25.72,4.29,71.09,12.5,50.73,53.23-20.36,40.72-77.84,18.18-90.02,10.9-12.18-7.28-22.62-21.51-30.21-32.62"/>
    </g>
    <g>
      <path class="cls-1" d="M358.75,486.95c-8.5,10.19-17.93,22.96-14.79,36.74,1.23,6.06,6.44,11.73,10.31,16.55,0,0-7.18,1.19-7.18,1.19-2.86,.15-4.42,1.72-5.2,4.78-1.7,7.71,0,15.92,1.22,23.74,.74,4.15,1.58,8.33,2.43,12.56-1.19-1.81-2.24-3.7-3.24-5.62-6.26-11.77-16.48-40.88,4.29-43.47,0,0-2.8,6.61-2.8,6.61-1.25-1.51-2.59-3.25-3.62-4.95-11.49-18.41,1.59-39.1,18.58-48.13h0Z"/>
      <path class="cls-4" d="M340.96,510.72s-38.79,18.11-64.84,19.13c-26.06,1.02-72.1,3.47-57.01,46.43,15.09,42.96,74.94,27.81,87.94,22.12,13-5.7,25.14-18.5,34.07-28.56"/>
    </g>
    <path class="cls-4" d="M778,521.68s51.55-73.97-28.3-114.69c26.79-44.48-32.15-65.64-51.71-46.62-3.48-44.74-61.8-57.25-90.38-33.31-13.93-44.3-99.67-42.15-118.25-.36-32.51-32.11-98.24,7.86-90.02,31.44-40.01-21.79-61.8,17.86-51.08,47.51-37.88,13.22-42.87,88.24-32.87,113.96"/>
  </g>
  <text class="cls-2" transform="translate(-177.11 1154.22)"><tspan x="0" y="0">C:\sheep</tspan></text>
</svg>